<svg width="57" height="57" viewBox="0 0 57 57" fill="none" xmlns="http://www.w3.org/2000/svg">
<path d="M24.9375 29.551L20.324 24.9375L17.8125 27.4491L24.9375 34.5741L39.1875 20.3241L36.6759 17.8125L24.9375 29.551Z" fill="#FF5D00"/>
<path d="M28.5 53.4375L17.499 47.5718C14.3625 45.9037 11.7397 43.4127 9.91199 40.3665C8.08431 37.3203 7.12083 33.8337 7.12499 30.2813V7.12502C7.12499 6.18018 7.50032 5.27405 8.16842 4.60595C8.83652 3.93785 9.74266 3.56252 10.6875 3.56252H46.3125C47.2573 3.56252 48.1634 3.93785 48.8315 4.60595C49.4996 5.27405 49.875 6.18018 49.875 7.12502V30.2813C49.8791 33.8337 48.9157 37.3203 47.088 40.3665C45.2603 43.4127 42.6374 45.9037 39.501 47.5718L28.5 53.4375ZM10.6875 7.12502V30.2813C10.6855 33.1877 11.4746 36.0399 12.9701 38.532C14.4657 41.0242 16.6113 43.0623 19.1769 44.4279L28.5 49.3994L37.823 44.4297C40.389 43.064 42.5347 41.0256 44.0303 38.5331C45.5259 36.0406 46.3148 33.188 46.3125 30.2813V7.12502H10.6875Z" fill="#FF5D00"/>
</svg>
