<svg width="53" height="44" viewBox="0 0 53 44" fill="none" xmlns="http://www.w3.org/2000/svg">
<path d="M11.7093 11.7093H21.5697" stroke="#FF5D00" stroke-width="3.6875" stroke-linecap="round" stroke-linejoin="round"/>
<path d="M48.2743 14.1744H41.8601C37.4599 14.1744 33.8953 17.4851 33.8953 21.5698C33.8953 25.6545 37.4623 28.9651 41.8576 28.9651H48.2743C48.4814 28.9651 48.5825 28.9651 48.6688 28.9602C49.9999 28.8788 51.0599 27.8953 51.1462 26.6602C51.1511 26.5814 51.1511 26.4852 51.1511 26.2954V16.8442C51.1511 16.6543 51.1511 16.5582 51.1462 16.4793C51.0574 15.2443 49.9999 14.2607 48.6688 14.1794C48.5849 14.1744 48.4814 14.1744 48.2743 14.1744Z" stroke="#FF5D00" stroke-width="3.6875"/>
<path d="M48.5997 14.1744C48.4075 9.55972 47.7912 6.72976 45.7969 4.73795C42.9103 1.84884 38.2611 1.84884 28.9651 1.84884H21.5698C12.2738 1.84884 7.6246 1.84884 4.73795 4.73795C1.8513 7.62707 1.84884 12.2738 1.84884 21.5698C1.84884 30.8657 1.84884 35.5149 4.73795 38.4016C7.62707 41.2882 12.2738 41.2907 21.5698 41.2907H28.9651C38.2611 41.2907 42.9103 41.2907 45.7969 38.4016C47.7912 36.4098 48.4099 33.5798 48.5997 28.9651" stroke="#FF5D00" stroke-width="3.6875"/>
<path d="M41.2686 21.5698H41.2932" stroke="#FF5D00" stroke-width="4.91667" stroke-linecap="round" stroke-linejoin="round"/>
</svg>
