<svg width="50" height="50" viewBox="0 0 50 50" fill="none" xmlns="http://www.w3.org/2000/svg">
<path d="M25 10.7687V25L35.6734 35.6734M25 3.65311V7.21093M25 42.7891V46.3469M3.65311 25H7.21093M42.7891 25H46.3469M48.1258 25C48.1258 31.1333 45.6893 37.0155 41.3524 41.3524C37.0155 45.6893 31.1333 48.1258 25 48.1258C18.8667 48.1258 12.9845 45.6893 8.64759 41.3524C4.31067 37.0155 1.87421 31.1333 1.87421 25C1.87421 18.8667 4.31067 12.9845 8.64759 8.64759C12.9845 4.31067 18.8667 1.87421 25 1.87421C31.1333 1.87421 37.0155 4.31067 41.3524 8.64759C45.6893 12.9845 48.1258 18.8667 48.1258 25Z" stroke="#FF5D00" stroke-width="3.6875"/>
</svg>
