<svg width="33" height="29" viewBox="0 0 33 29" fill="none" xmlns="http://www.w3.org/2000/svg">
<g clip-path="url(#clip0_70_270)">
<path d="M32.2268 14.7822C32.2268 15.7666 31.4065 16.5377 30.4768 16.5377H28.7268L28.7651 25.2986C28.7651 25.4462 28.7542 25.5939 28.7378 25.7416V26.6275C28.7378 27.8361 27.7589 28.815 26.5503 28.815H25.6753C25.6151 28.815 25.5549 28.815 25.4948 28.8095C25.4182 28.815 25.3417 28.815 25.2651 28.815L23.4878 28.8095H22.1753H10.8003H7.74323C7.6612 28.8095 7.57917 28.8041 7.49714 28.7986C7.43151 28.8041 7.36589 28.8095 7.30026 28.8095H6.42526C5.21667 28.8095 4.23776 27.8306 4.23776 26.622V20.497C4.23776 20.4478 4.23776 20.3931 4.24323 20.3439V16.5322H2.49323C1.50886 16.5322 0.743231 15.7666 0.743231 14.7767C0.743231 14.2845 0.907293 13.847 1.29011 13.4642L15.3065 1.24702C15.6893 0.864212 16.1268 0.809525 16.5096 0.809525C16.8924 0.809525 17.3299 0.9189 17.6581 1.19234L31.6253 13.4697C32.0628 13.8525 32.2815 14.29 32.2268 14.7822Z" fill="#FF5E00"/>
<g clip-path="url(#clip1_70_270)">
<path d="M14.9854 12.8888C13.9544 12.4108 13.1497 11.5505 12.7416 10.4898C12.6926 10.3462 12.7478 10.2993 12.9308 10.2707C13.2545 10.233 13.5825 10.2707 13.8891 10.381C14.0565 10.4326 14.221 10.4935 14.3818 10.5633C14.5215 10.6273 14.6739 10.6588 14.8276 10.6557C14.9813 10.6525 15.1322 10.6146 15.2692 10.545C15.502 10.4347 15.7286 10.317 15.9695 10.2183C16.1557 10.1355 16.3569 10.0919 16.5606 10.0903C16.7643 10.0886 16.9662 10.129 17.1537 10.2088C17.8791 10.5211 18.6875 10.5843 19.4526 10.3884C19.6444 10.3447 19.8387 10.3129 20.0345 10.2932C20.3856 10.2578 20.4843 10.3503 20.3714 10.5926C19.9619 11.4779 19.3042 12.2252 18.478 12.7438C18.427 12.7765 18.3855 12.8173 18.2895 12.8936C18.3633 12.9249 18.4351 12.9606 18.5046 13.0004C20.1854 14.055 21.5877 15.4987 22.5927 17.2097C22.9717 17.9343 23.1927 18.731 23.2413 19.5474C23.3015 20.299 23.3332 21.0527 23.3365 21.8068C23.3385 22.4262 23.185 23.0363 22.8901 23.581C22.3885 24.51 21.4276 24.9864 20.1393 25.134C19.8503 25.1622 19.5599 25.1749 19.2695 25.1721C17.447 25.1756 15.6245 25.181 13.802 25.1708C12.8937 25.206 11.9965 24.9624 11.2308 24.4725C10.679 24.0833 10.293 23.5016 10.1487 22.8419C9.95073 21.9624 9.91178 21.0545 10.0337 20.1612C10.0758 19.5665 10.157 18.9752 10.2767 18.3911C10.6309 17.1569 11.3091 16.04 12.2408 15.1564C13.0456 14.3124 13.948 13.5672 14.9289 12.9364C14.9486 12.9216 14.9675 12.9057 14.9854 12.8888ZM16.778 16.2698C17.0673 15.2067 17.1673 14.1009 17.0734 13.0031C17.0666 12.8936 16.9951 12.8568 16.8529 12.8623C16.6696 12.8762 16.4855 12.8753 16.3023 12.8595C16.0669 12.8223 15.8259 12.8444 15.6012 12.9241C15.3766 13.0037 15.1754 13.1383 15.0161 13.3155C13.7011 14.5365 12.8869 16.2026 12.7314 17.9902C12.711 18.2012 12.7287 18.4149 12.7287 18.6735C12.7519 18.5993 12.7627 18.5687 12.7702 18.5374C13.0381 17.4824 13.4534 16.4704 14.0041 15.5314C14.5364 14.5777 15.2823 13.7601 16.1832 13.1427C16.2417 13.1039 16.3057 13.0698 16.3683 13.0338L16.45 13.0494L16.778 16.2698ZM17.1353 12.8854C19.8929 15.2401 20.9668 18.0828 21.5446 21.0766C21.5548 20.9575 21.557 20.8379 21.5514 20.7186C21.5072 20.1197 21.4868 19.5195 21.4058 18.9233C21.22 17.4875 20.69 16.1179 19.8609 14.9312C19.3713 14.2318 18.7714 13.6165 18.0847 13.1093C17.9547 13.0007 17.8013 12.924 17.6365 12.8851C17.4717 12.8462 17.3001 12.8463 17.1353 12.8854Z" fill="white"/>
</g>
</g>
<defs>
<clipPath id="clip0_70_270">
<rect width="31.5" height="28" fill="white" transform="translate(0.738098 0.809525)"/>
</clipPath>
<clipPath id="clip1_70_270">
<rect width="16.3333" height="16.3333" fill="white" transform="translate(8.32143 9.55952)"/>
</clipPath>
</defs>
</svg>
